<?xml version="1.0" standalone="no"?><!-- Generator: Gravit.io --><svg xmlns="http://www.w3.org/2000/svg" xmlns:xlink="http://www.w3.org/1999/xlink" style="isolation:isolate" viewBox="0 0 554.809 186.981" width="554.809" height="186.981"><defs><clipPath id="_clipPath_5SnboeOmAPBAHjNjsA9AWr3mXLB1I7oG"><rect width="554.809" height="186.981"/></clipPath></defs><g clip-path="url(#_clipPath_5SnboeOmAPBAHjNjsA9AWr3mXLB1I7oG)"><g><g><path d=" M 14.243 152.657 L 10.385 152.927 C 10.017 152.953 9.708 153.212 9.619 153.57 L 8.684 157.323 C 8.484 158.123 7.378 158.2 7.069 157.436 L 5.619 153.85 C 5.482 153.508 5.139 153.294 4.772 153.32 L 0.913 153.591 C 0.406 153.626 0.053 153.248 0.005 152.829 C -0.023 152.568 0.066 152.293 0.307 152.09 L 3.269 149.603 C 3.552 149.367 3.649 148.976 3.511 148.633 L 2.062 145.048 C 1.753 144.284 2.603 143.571 3.301 144.007 L 6.582 146.056 C 6.894 146.252 7.296 146.223 7.58 145.987 L 10.541 143.5 C 11.172 142.97 12.114 143.558 11.914 144.358 L 10.979 148.11 C 10.889 148.467 11.042 148.842 11.354 149.037 L 14.635 151.086 C 15.333 151.522 15.064 152.599 14.243 152.657 Z " fill="rgb(255,0,81)"/><path d=" M 8.605 157.969 C 8.285 157.969 7.964 157.795 7.819 157.436 L 6.369 153.85 C 6.24 153.528 5.926 153.318 5.582 153.318 C 5.563 153.318 5.542 153.318 5.522 153.32 L 1.663 153.591 C 1.642 153.592 1.619 153.594 1.597 153.594 C 1.125 153.594 0.801 153.23 0.755 152.829 C 1.363 152.311 3.01 151.11 5.162 151.11 C 5.939 151.11 6.783 151.266 7.668 151.669 C 8.338 151.973 8.983 152.098 9.593 152.098 C 11.389 152.098 12.886 151.004 13.814 150.106 L 15.385 151.086 C 15.66 151.258 15.785 151.53 15.785 151.799 C 15.785 152.214 15.491 152.622 14.993 152.657 L 11.135 152.927 C 10.767 152.953 10.458 153.212 10.369 153.57 L 9.434 157.323 C 9.328 157.747 8.967 157.969 8.605 157.969 Z " fill="rgb(189,0,73)"/></g><g><path d=" M 111.126 109.871 L 108.897 105.628 C 108.684 105.223 108.236 105.001 107.787 105.078 L 103.061 105.887 C 102.054 106.059 101.416 104.843 102.129 104.111 L 105.476 100.679 C 105.795 100.354 105.868 99.858 105.655 99.455 L 103.426 95.209 C 103.133 94.652 103.387 94.063 103.837 93.8 C 104.12 93.639 104.476 93.602 104.827 93.775 L 109.124 95.897 C 109.534 96.101 110.025 96.016 110.346 95.688 L 113.691 92.258 C 114.405 91.527 115.638 92.136 115.491 93.146 L 114.8 97.889 C 114.732 98.341 114.966 98.783 115.375 98.987 L 119.673 101.109 C 120.588 101.561 120.39 102.922 119.383 103.094 L 114.66 103.902 C 114.209 103.978 113.86 104.338 113.794 104.789 L 113.104 109.533 C 112.957 110.543 111.601 110.774 111.126 109.871 Z " fill="rgb(255,0,81)"/><path d=" M 102.29 106.119 C 102.13 105.756 102.168 105.306 102.503 104.962 L 105.85 101.53 C 106.151 101.224 106.232 100.763 106.061 100.372 C 106.051 100.351 106.041 100.327 106.029 100.306 L 103.799 96.06 C 103.787 96.038 103.774 96.013 103.763 95.987 C 103.528 95.452 103.78 94.904 104.211 94.651 C 105.102 95.083 107.285 96.354 108.357 98.796 C 108.745 99.678 108.988 100.713 108.972 101.918 C 108.96 102.829 109.139 103.624 109.443 104.316 C 110.338 106.355 112.326 107.508 113.807 108.113 L 113.477 110.384 C 113.419 110.782 113.173 111.06 112.868 111.194 C 112.396 111.401 111.788 111.269 111.5 110.722 L 109.271 106.479 C 109.058 106.074 108.61 105.852 108.16 105.93 L 103.435 106.738 C 102.902 106.829 102.47 106.53 102.29 106.119 Z " fill="rgb(189,0,73)"/></g><g><path d=" M 515.503 43.997 L 514.043 41.833 C 513.904 41.627 513.648 41.534 513.409 41.602 L 510.9 42.322 C 510.366 42.476 509.947 41.855 510.29 41.417 L 511.896 39.36 C 512.05 39.164 512.059 38.892 511.92 38.686 L 510.46 36.522 C 510.268 36.237 510.37 35.904 510.598 35.734 C 510.742 35.63 510.932 35.589 511.132 35.662 L 513.585 36.554 C 513.819 36.639 514.08 36.564 514.233 36.367 L 515.839 34.311 C 516.182 33.873 516.885 34.129 516.866 34.684 L 516.775 37.293 C 516.766 37.541 516.919 37.767 517.153 37.852 L 519.605 38.744 C 520.127 38.934 520.102 39.683 519.567 39.836 L 517.059 40.555 C 516.82 40.623 516.652 40.839 516.644 41.087 L 516.553 43.695 C 516.534 44.251 515.814 44.457 515.503 43.997 Z " fill="rgb(255,0,81)"/><path d=" M 510.497 42.494 C 510.389 42.307 510.382 42.061 510.543 41.855 L 512.149 39.798 C 512.294 39.614 512.31 39.36 512.194 39.159 C 512.188 39.147 512.181 39.135 512.173 39.124 L 510.713 36.96 C 510.705 36.948 510.696 36.936 510.689 36.923 C 510.53 36.647 510.633 36.335 510.851 36.173 C 511.36 36.353 512.617 36.91 513.343 38.168 C 513.605 38.622 513.799 39.168 513.862 39.821 C 513.91 40.315 514.055 40.734 514.26 41.091 C 514.866 42.141 516.011 42.646 516.849 42.885 L 516.806 44.134 C 516.798 44.353 516.682 44.518 516.525 44.608 C 516.282 44.749 515.944 44.714 515.756 44.435 L 514.296 42.272 C 514.157 42.065 513.901 41.972 513.662 42.041 L 511.153 42.761 C 510.87 42.841 510.619 42.706 510.497 42.494 Z " fill="rgb(189,0,73)"/></g><g><path d=" M 289.502 19.814 L 287.482 18.574 C 287.289 18.456 287.043 18.475 286.872 18.622 L 285.069 20.159 C 284.684 20.487 284.106 20.132 284.224 19.641 L 284.778 17.337 C 284.832 17.118 284.737 16.889 284.545 16.771 L 282.525 15.531 C 282.26 15.368 282.219 15.054 282.344 14.828 C 282.423 14.689 282.565 14.583 282.758 14.568 L 285.119 14.383 C 285.345 14.366 285.532 14.206 285.585 13.985 L 286.14 11.683 C 286.258 11.192 286.936 11.139 287.129 11.605 L 288.034 13.795 C 288.12 14.004 288.331 14.133 288.556 14.116 L 290.918 13.931 C 291.421 13.892 291.681 14.52 291.297 14.848 L 289.494 16.385 C 289.322 16.531 289.265 16.772 289.351 16.98 L 290.256 19.17 C 290.449 19.636 289.931 20.077 289.502 19.814 Z " fill="rgb(255,0,81)"/><path d=" M 284.799 20.453 C 284.64 20.339 284.542 20.138 284.598 19.908 L 285.152 17.604 C 285.203 17.397 285.121 17.181 284.949 17.059 C 284.939 17.052 284.929 17.044 284.919 17.038 L 282.899 15.798 C 282.888 15.792 282.876 15.784 282.865 15.776 C 282.63 15.608 282.598 15.312 282.717 15.095 C 283.205 15.054 284.454 15.042 285.526 15.808 C 285.914 16.085 286.278 16.463 286.576 16.979 C 286.802 17.369 287.079 17.662 287.383 17.879 C 288.278 18.519 289.414 18.507 290.196 18.389 L 290.63 19.437 C 290.706 19.621 290.672 19.801 290.576 19.935 C 290.428 20.142 290.136 20.24 289.875 20.081 L 287.856 18.842 C 287.663 18.723 287.417 18.742 287.246 18.889 L 285.443 20.427 C 285.239 20.6 284.98 20.582 284.799 20.453 Z " fill="rgb(189,0,73)"/></g><g><path d=" M 257.561 136.17 L 256.216 135.549 C 256.088 135.49 255.936 135.52 255.841 135.624 L 254.835 136.711 C 254.621 136.943 254.236 136.765 254.273 136.451 L 254.447 134.98 C 254.464 134.841 254.388 134.706 254.261 134.647 L 252.915 134.026 C 252.739 133.944 252.69 133.752 252.751 133.603 C 252.79 133.511 252.87 133.435 252.989 133.411 L 254.441 133.122 C 254.58 133.095 254.684 132.982 254.701 132.841 L 254.876 131.371 C 254.913 131.058 255.329 130.975 255.483 131.25 L 256.207 132.542 C 256.275 132.666 256.416 132.73 256.554 132.703 L 258.006 132.415 C 258.316 132.353 258.523 132.724 258.309 132.956 L 257.304 134.042 C 257.208 134.145 257.19 134.3 257.259 134.422 L 257.982 135.715 C 258.136 135.99 257.847 136.302 257.561 136.17 Z " fill="rgb(255,0,81)"/><path d=" M 254.69 136.913 C 254.582 136.854 254.507 136.736 254.524 136.589 L 254.699 135.119 C 254.715 134.987 254.648 134.859 254.533 134.795 C 254.526 134.792 254.519 134.788 254.512 134.785 L 253.167 134.164 C 253.16 134.161 253.152 134.157 253.144 134.153 C 252.986 134.066 252.945 133.884 253.003 133.741 C 253.303 133.68 254.076 133.58 254.799 133.977 C 255.059 134.12 255.314 134.328 255.537 134.626 C 255.705 134.852 255.899 135.013 256.103 135.125 C 256.706 135.456 257.41 135.365 257.887 135.234 L 258.233 135.853 C 258.294 135.961 258.286 136.076 258.236 136.166 C 258.16 136.305 257.986 136.388 257.813 136.308 L 256.468 135.688 C 256.34 135.628 256.188 135.658 256.093 135.762 L 255.087 136.849 C 254.973 136.972 254.811 136.98 254.69 136.913 Z " fill="rgb(189,0,73)"/></g></g><g><path d=" M 54.647 101.5 C 54.647 100.672 53.975 100 53.147 100 C 52.319 100 51.647 100.672 51.647 101.5 C 51.647 102.328 52.319 103 53.147 103 C 53.975 103 54.647 102.328 54.647 101.5 Z " fill="rgb(255,176,85)"/><path d=" M 415.647 102.001 C 415.647 100.896 414.752 100 413.647 100 C 412.543 100 411.647 100.896 411.647 102.001 C 411.647 103.104 412.543 104 413.647 104 C 414.752 104 415.647 103.104 415.647 102.001 Z " fill="rgb(255,176,85)"/><path d=" M 397.647 133.001 C 397.647 131.343 396.304 130 394.646 130 C 392.991 130 391.647 131.343 391.647 133.001 C 391.647 134.657 392.991 136 394.646 136 C 396.304 136 397.647 134.657 397.647 133.001 Z " fill="rgb(255,176,85)"/><path d=" M 414.147 71.25 C 414.147 70.56 413.587 70 412.897 70 C 412.207 70 411.647 70.56 411.647 71.25 C 411.647 71.94 412.207 72.5 412.897 72.5 C 413.587 72.5 414.147 71.94 414.147 71.25 Z " fill="rgb(255,176,85)"/><path d=" M 526.751 2.553 C 526.751 1.143 525.608 0 524.198 0 C 522.79 0 521.647 1.143 521.647 2.553 C 521.647 3.961 522.79 5.104 524.198 5.104 C 525.608 5.104 526.751 3.961 526.751 2.553 Z " fill="rgb(255,176,85)"/><path d=" M 264.647 31.5 C 264.647 30.672 263.975 30 263.147 30 C 262.319 30 261.647 30.672 261.647 31.5 C 261.647 32.328 262.319 33 263.147 33 C 263.975 33 264.647 32.328 264.647 31.5 Z " fill="rgb(255,176,85)"/></g><g><path d=" M 552.604 28.794 L 552.31 27.906 C 553.062 27.658 553.826 27.437 554.58 27.247 L 554.809 28.154 C 554.076 28.336 553.333 28.553 552.604 28.794 Z  M 544.277 32.722 L 543.792 31.924 C 544.478 31.508 545.165 31.113 545.835 30.746 L 546.284 31.569 C 545.625 31.926 544.95 32.316 544.277 32.722 Z  M 536.672 38.05 L 536.1 37.31 C 536.756 36.803 537.366 36.338 537.969 35.89 L 538.527 36.639 C 537.929 37.083 537.324 37.546 536.672 38.05 Z  M 489.189 43.854 L 488.979 42.944 C 489.708 42.775 490.502 42.647 491.338 42.56 L 491.434 43.488 C 490.637 43.572 489.88 43.693 489.189 43.854 Z  M 529.375 43.876 L 528.794 43.144 C 529.401 42.659 530.008 42.173 530.613 41.685 L 531.2 42.411 C 530.592 42.902 529.985 43.39 529.375 43.876 Z  M 500.59 44.016 C 499.847 43.869 499.083 43.745 498.315 43.647 L 498.436 42.719 C 499.223 42.822 500.008 42.948 500.77 43.1 L 500.59 44.016 Z  M 508.87 47.641 C 508.242 47.183 507.602 46.751 506.964 46.351 L 507.461 45.56 C 508.116 45.971 508.774 46.417 509.419 46.886 L 508.87 47.641 Z  M 483.34 49.432 L 482.411 49.35 C 482.443 48.991 482.499 48.617 482.584 48.236 C 482.684 47.783 482.833 47.346 483.027 46.94 L 483.871 47.344 C 483.707 47.685 483.581 48.054 483.497 48.437 C 483.422 48.778 483.368 49.112 483.34 49.432 Z  M 521.871 49.484 L 521.347 48.71 C 521.962 48.295 522.602 47.849 523.249 47.384 L 523.793 48.143 C 523.139 48.612 522.492 49.063 521.871 49.484 Z  M 513.679 54.104 L 513.303 53.249 C 513.703 53.071 514.109 52.884 514.518 52.688 L 514.06 52.205 L 514.735 51.56 C 515.27 52.118 515.805 52.705 516.323 53.303 L 515.616 53.915 L 515.172 53.41 C 514.672 53.653 514.172 53.886 513.679 54.104 Z  M 271.461 56.201 C 270.709 56.145 269.933 56.11 269.156 56.098 L 269.17 55.164 C 269.966 55.176 270.76 55.211 271.531 55.269 L 271.461 56.201 Z  M 488.203 56.355 C 487.37 56.103 486.613 55.799 485.956 55.451 L 486.393 54.625 C 486.996 54.945 487.696 55.225 488.474 55.461 L 488.203 56.355 Z  M 504.638 56.769 L 504.497 55.846 C 504.932 55.781 505.334 55.713 505.693 55.645 C 506.046 55.578 506.406 55.503 506.758 55.426 L 506.964 56.337 C 506.6 56.418 506.231 56.493 505.866 56.563 C 505.497 56.633 505.084 56.703 504.638 56.769 Z  M 259.96 56.911 L 259.792 55.991 C 260.576 55.849 261.359 55.725 262.118 55.62 L 262.244 56.545 C 261.499 56.647 260.728 56.771 259.96 56.911 Z  M 496.554 57.371 C 496.114 57.371 495.675 57.364 495.243 57.35 L 495.271 56.418 C 495.701 56.43 496.152 56.43 496.577 56.437 C 496.916 56.437 497.25 56.432 497.581 56.425 L 497.602 57.36 C 497.254 57.367 496.906 57.376 496.554 57.371 Z  M 280.416 58.161 C 279.711 57.89 278.977 57.642 278.242 57.423 L 278.505 56.528 C 279.267 56.752 280.021 57.009 280.75 57.29 L 280.416 58.161 Z  M 250.981 59.212 L 250.692 58.324 C 251.441 58.079 252.198 57.846 252.936 57.631 L 253.198 58.525 C 252.469 58.74 251.724 58.971 250.981 59.212 Z  M 520.995 61.433 C 520.602 60.77 520.194 60.107 519.776 59.464 L 520.56 58.955 C 520.983 59.609 521.401 60.282 521.798 60.957 L 520.995 61.433 Z  M 242.306 62.531 L 241.93 61.674 C 242.633 61.366 243.362 61.057 244.091 60.758 L 244.446 61.622 C 243.722 61.919 243.002 62.225 242.306 62.531 Z  M 288.479 62.566 C 287.869 62.129 287.225 61.702 286.564 61.288 L 287.059 60.497 C 287.736 60.919 288.395 61.359 289.021 61.807 L 288.479 62.566 Z  M 234.026 66.721 L 233.557 65.913 C 234.22 65.528 234.909 65.14 235.605 64.764 L 236.051 65.584 C 235.362 65.958 234.682 66.338 234.026 66.721 Z  M 295.073 68.908 C 294.61 68.3 294.12 67.707 293.613 67.139 L 294.309 66.518 C 294.832 67.102 295.339 67.714 295.816 68.34 L 295.073 68.908 Z  M 525.008 69.765 C 524.737 69.052 524.445 68.331 524.139 67.621 L 524.996 67.249 C 525.307 67.973 525.606 68.707 525.881 69.433 L 525.008 69.765 Z  M 226.348 71.904 L 225.772 71.171 C 226.379 70.692 227.009 70.216 227.647 69.753 L 228.196 70.51 C 227.568 70.965 226.946 71.435 226.348 71.904 Z  M 299.581 76.903 C 299.277 76.172 298.96 75.464 298.64 74.798 L 299.483 74.394 C 299.81 75.074 300.132 75.798 300.443 76.543 L 299.581 76.903 Z  M 219.561 78.188 L 218.869 77.559 C 219.395 76.982 219.939 76.41 220.493 75.852 L 221.156 76.51 C 220.612 77.059 220.075 77.622 219.561 78.188 Z  M 527.465 78.666 C 527.336 77.91 527.184 77.146 527.016 76.401 L 527.93 76.195 C 528.1 76.957 528.254 77.734 528.387 78.507 L 527.465 78.666 Z  M 214.083 85.599 L 213.273 85.132 C 213.663 84.457 214.081 83.782 214.513 83.123 L 215.293 83.637 C 214.871 84.279 214.464 84.94 214.083 85.599 Z  M 302.585 85.685 C 302.36 84.933 302.136 84.193 301.907 83.457 L 302.799 83.179 C 303.031 83.917 303.255 84.665 303.479 85.417 L 302.585 85.685 Z  M 529.067 87.897 L 528.133 87.874 C 528.142 87.474 528.149 87.077 528.149 86.678 C 528.149 86.307 528.144 85.935 528.135 85.564 L 529.069 85.54 C 529.079 85.921 529.083 86.3 529.083 86.68 C 529.083 87.087 529.076 87.491 529.067 87.897 Z  M 210.482 94.066 L 209.585 93.804 C 209.807 93.047 210.05 92.291 210.311 91.557 L 211.19 91.87 C 210.935 92.587 210.697 93.325 210.482 94.066 Z  M 305.278 94.636 C 305.051 93.93 304.82 93.199 304.575 92.4 L 305.469 92.127 C 305.712 92.921 305.941 93.645 306.168 94.346 L 305.278 94.636 Z  M 527.902 97.24 L 526.993 97.032 C 527.161 96.287 527.315 95.526 527.448 94.767 L 528.369 94.93 C 528.233 95.703 528.077 96.481 527.902 97.24 Z  M 208.828 103.145 L 207.899 103.063 C 207.969 102.271 208.055 101.484 208.155 100.723 L 209.083 100.844 C 208.985 101.592 208.898 102.367 208.828 103.145 Z  M 308.583 103.411 C 308.27 102.694 307.962 101.968 307.67 101.248 L 308.536 100.898 C 308.826 101.608 309.129 102.327 309.438 103.035 L 308.583 103.411 Z  M 524.856 106.153 L 524.008 105.756 C 524.333 105.062 524.643 104.35 524.928 103.64 L 525.795 103.988 C 525.503 104.714 525.187 105.443 524.856 106.153 Z  M 312.801 111.792 C 312.418 111.119 312.035 110.43 311.664 109.739 L 312.488 109.297 C 312.855 109.979 313.233 110.664 313.614 111.327 L 312.801 111.792 Z  M 207.672 112.448 C 207.649 111.638 207.635 110.848 207.632 110.103 L 208.566 110.098 C 208.569 110.836 208.583 111.619 208.604 112.422 L 207.672 112.448 Z  M 519.906 114.172 L 519.175 113.593 L 519.514 113.158 C 519.869 112.698 520.217 112.222 520.553 111.745 L 521.319 112.28 C 520.976 112.77 520.616 113.256 520.254 113.728 L 519.906 114.172 Z  M 317.886 119.677 C 317.433 119.049 316.977 118.402 316.538 117.757 L 317.309 117.229 C 317.746 117.869 318.194 118.509 318.643 119.131 L 317.886 119.677 Z  M 513.268 120.854 L 512.677 120.13 C 513.277 119.642 513.868 119.135 514.431 118.628 L 515.057 119.322 C 514.483 119.841 513.88 120.357 513.268 120.854 Z  M 208.181 121.791 C 208.125 121.011 208.071 120.233 208.02 119.46 L 208.954 119.397 C 209.003 120.17 209.059 120.946 209.113 121.723 L 208.181 121.791 Z  M 505.446 126.084 L 504.997 125.267 C 505.677 124.893 506.352 124.503 507.001 124.11 L 507.485 124.912 C 506.824 125.311 506.137 125.706 505.446 126.084 Z  M 323.779 126.979 C 323.258 126.399 322.74 125.806 322.233 125.213 L 322.945 124.608 C 323.445 125.194 323.959 125.78 324.475 126.353 L 323.779 126.979 Z  M 496.881 129.959 L 496.558 129.083 C 497.287 128.815 498.013 128.532 498.721 128.245 L 499.074 129.109 C 498.357 129.403 497.619 129.688 496.881 129.959 Z  M 208.861 131.104 L 208.69 128.777 L 209.622 128.707 L 209.793 131.036 L 208.861 131.104 Z  M 487.872 132.608 L 487.668 131.695 C 488.432 131.526 489.191 131.344 489.922 131.155 L 490.156 132.059 C 489.413 132.25 488.645 132.435 487.872 132.608 Z  M 330.427 133.603 C 329.847 133.084 329.266 132.549 328.698 132.015 L 329.338 131.335 C 329.899 131.865 330.476 132.393 331.05 132.904 L 330.427 133.603 Z  M 478.627 134.166 L 478.508 133.241 C 479.323 133.136 480.077 133.033 480.813 132.928 L 480.946 133.85 C 480.206 133.958 479.447 134.061 478.627 134.166 Z  M 469.34 135.212 L 469.237 134.283 C 470.01 134.198 470.786 134.114 471.559 134.033 L 471.659 134.96 C 470.886 135.044 470.113 135.126 469.34 135.212 Z  M 460.111 136.434 L 459.955 135.514 C 460.695 135.387 461.473 135.266 462.272 135.149 L 462.407 136.074 C 461.616 136.191 460.843 136.31 460.111 136.434 Z  M 451.079 138.517 L 450.806 137.625 C 451.539 137.398 452.301 137.181 453.067 136.978 L 453.307 137.882 C 452.553 138.08 451.803 138.295 451.079 138.517 Z  M 337.768 139.449 C 337.132 138.998 336.495 138.534 335.871 138.064 L 336.432 137.319 C 337.048 137.782 337.679 138.242 338.307 138.685 L 337.768 139.449 Z  M 209.54 140.416 L 209.37 138.09 L 210.302 138.02 L 210.472 140.348 L 209.54 140.416 Z  M 442.304 141.603 L 441.967 140.732 C 442.694 140.454 443.423 140.178 444.158 139.907 L 444.481 140.783 C 443.75 141.054 443.025 141.327 442.304 141.603 Z  M 345.73 144.417 C 345.046 144.041 344.359 143.654 343.689 143.261 L 344.158 142.455 C 344.822 142.843 345.501 143.226 346.179 143.597 L 345.73 144.417 Z  M 433.655 145.078 L 433.299 144.216 C 434.017 143.92 434.734 143.623 435.455 143.329 L 435.81 144.193 C 435.089 144.487 434.372 144.784 433.655 145.078 Z  M 354.195 148.468 C 353.48 148.171 352.754 147.86 352.039 147.54 L 352.42 146.688 C 353.128 147.003 353.845 147.311 354.552 147.606 L 354.195 148.468 Z  M 424.998 148.594 L 424.66 147.722 C 425.381 147.442 426.103 147.155 426.825 146.865 L 427.173 147.734 C 426.449 148.024 425.725 148.311 424.998 148.594 Z  M 210.22 149.729 L 210.05 147.402 L 210.982 147.335 L 211.152 149.661 L 210.22 149.729 Z  M 363.036 151.607 C 362.286 151.383 361.532 151.149 360.796 150.908 L 361.085 150.018 C 361.814 150.257 362.559 150.49 363.302 150.712 L 363.036 151.607 Z  M 416.181 151.747 L 415.898 150.857 C 416.625 150.626 417.37 150.383 418.108 150.131 L 418.409 151.013 C 417.664 151.268 416.914 151.516 416.181 151.747 Z  M 372.143 153.847 C 371.386 153.7 370.613 153.538 369.847 153.37 L 370.048 152.457 C 370.807 152.625 371.571 152.784 372.323 152.929 L 372.143 153.847 Z  M 407.114 154.139 L 406.924 153.225 C 407.672 153.071 408.436 152.901 409.188 152.723 L 409.405 153.632 C 408.641 153.814 407.87 153.985 407.114 154.139 Z  M 381.423 155.201 C 380.652 155.127 379.867 155.04 379.092 154.945 L 379.204 154.017 C 379.972 154.111 380.75 154.197 381.514 154.272 L 381.423 155.201 Z  M 397.822 155.463 L 397.75 154.531 C 398.513 154.473 399.289 154.398 400.057 154.314 L 400.16 155.243 C 399.382 155.328 398.595 155.402 397.822 155.463 Z  M 390.787 155.69 C 390.007 155.685 389.217 155.671 388.442 155.648 L 388.47 154.716 C 389.238 154.737 390.018 154.751 390.794 154.755 L 390.787 155.69 Z  M 210.9 159.041 L 210.729 156.715 L 211.661 156.647 L 211.832 158.974 L 210.9 159.041 Z  M 211.577 168.354 L 211.409 166.028 L 212.341 165.958 L 212.509 168.286 L 211.577 168.354 Z  M 212.257 177.669 L 212.089 175.34 L 213.021 175.272 L 213.189 177.601 L 212.257 177.669 Z  M 212.937 186.981 L 212.769 184.653 L 213.698 184.585 L 213.869 186.914 L 212.937 186.981 Z " fill="rgb(132,92,188)"/><path d=" M 475.413 147.468 C 475.151 147.725 474.89 147.972 474.621 148.215 C 474.168 148.631 473.701 149.023 473.222 149.397 C 470.253 151.719 466.88 153.265 463.372 154.041 C 462.62 154.206 461.863 154.337 461.102 154.431 C 457.495 154.881 453.812 154.54 450.329 153.403 C 449.731 153.209 449.143 152.992 448.559 152.751 C 445.607 151.53 442.841 149.712 440.452 147.3 C 439.989 146.83 439.548 146.349 439.129 145.854 C 438.667 145.31 438.233 144.747 437.824 144.172 L 437.761 144.081 C 433.729 138.34 432.431 131.272 433.853 124.673 C 434.325 122.482 435.098 120.343 436.17 118.322 C 436.457 117.781 436.766 117.248 437.097 116.722 C 437.679 115.802 438.328 114.91 439.043 114.055 C 439.536 113.464 440.064 112.892 440.62 112.341 C 446.646 106.373 454.968 104.14 462.711 105.63 C 463.335 105.752 463.954 105.894 464.568 106.065 C 467.974 106.994 471.218 108.669 474.044 111.084 C 474.53 111.497 475.002 111.932 475.46 112.39 L 475.581 112.509 L 476.153 113.107 C 481.89 119.294 483.875 127.696 482.119 135.415 C 481.979 136.027 481.815 136.637 481.628 137.237 C 481.458 137.793 481.266 138.342 481.054 138.886 C 480.168 141.161 478.933 143.334 477.349 145.314 C 476.751 146.059 476.107 146.779 475.413 147.468 Z " fill="rgb(91,57,125)"/><path d=" M 458.016 154.625 C 455.419 154.625 452.822 154.216 450.329 153.403 C 450.589 152.947 450.934 152.539 451.343 152.202 C 452.259 151.446 453.272 151.14 454.307 151.14 C 456.643 151.14 459.088 152.693 460.777 154.146 L 461.102 154.431 C 460.079 154.559 459.046 154.625 458.016 154.625 Z  M 463.372 154.041 C 463.094 153.753 462.807 153.478 462.517 153.214 C 460.695 151.548 458.418 149.937 455.949 149.451 C 455.494 149.362 455.031 149.318 454.571 149.318 C 452.086 149.318 449.657 150.593 448.559 152.751 L 448.559 152.751 C 445.607 151.53 442.841 149.712 440.452 147.3 C 439.989 146.83 439.548 146.349 439.129 145.854 C 439.321 145.116 439.606 144.394 440.01 143.712 C 441.355 141.425 443.488 139.725 444.817 137.422 C 449.306 140.589 455.255 143.049 462.921 143.086 C 462.989 143.086 463.054 143.086 463.12 143.086 C 464.407 143.086 465.659 143.025 466.88 142.911 C 469.039 144.997 471.279 147.087 473.222 149.397 C 471.785 150.521 470.256 151.462 468.658 152.223 C 468.658 152.223 468.656 152.226 468.653 152.226 C 468.63 152.237 468.609 152.247 468.588 152.256 C 468.583 152.258 468.578 152.261 468.574 152.263 C 468.557 152.272 468.539 152.279 468.522 152.289 C 468.471 152.312 468.42 152.335 468.371 152.359 C 468.368 152.359 468.366 152.361 468.366 152.361 C 466.754 153.104 465.077 153.662 463.372 154.041 Z  M 474.621 148.215 C 473.019 146.323 471.232 144.572 469.489 142.866 C 469.405 142.785 469.319 142.703 469.235 142.619 C 473.666 141.937 477.615 140.566 481.054 138.886 C 481.012 138.994 480.97 139.099 480.928 139.206 C 480.052 141.365 478.858 143.425 477.349 145.314 C 476.751 146.059 476.107 146.779 475.413 147.468 C 475.151 147.725 474.89 147.972 474.621 148.215 L 474.621 148.215 Z  M 437.761 144.081 C 434.981 140.122 433.5 135.53 433.316 130.896 C 433.316 130.896 433.316 130.896 433.316 130.893 C 433.314 130.87 433.314 130.844 433.314 130.821 C 433.314 130.819 433.314 130.816 433.314 130.814 C 433.311 130.791 433.311 130.767 433.309 130.744 C 433.309 130.739 433.309 130.737 433.309 130.732 C 433.309 130.711 433.309 130.69 433.307 130.669 C 433.307 130.662 433.307 130.655 433.307 130.651 C 433.307 130.632 433.307 130.613 433.304 130.592 C 433.304 130.585 433.304 130.576 433.304 130.569 C 433.304 130.552 433.304 130.534 433.304 130.517 C 433.304 130.508 433.302 130.496 433.302 130.487 C 433.302 130.473 433.302 130.457 433.302 130.443 C 433.302 130.431 433.302 130.417 433.302 130.405 C 433.299 130.394 433.299 130.38 433.299 130.368 C 433.299 130.354 433.299 130.338 433.299 130.323 C 433.299 130.314 433.299 130.302 433.299 130.293 C 433.299 130.277 433.299 130.26 433.297 130.244 C 433.297 130.235 433.297 130.225 433.297 130.216 C 433.297 130.197 433.297 130.181 433.297 130.162 C 433.297 130.155 433.297 130.148 433.297 130.141 C 433.297 130.123 433.297 130.102 433.297 130.081 C 433.297 130.076 433.297 130.071 433.297 130.067 C 433.297 130.043 433.297 130.022 433.295 130.001 C 433.295 129.996 433.295 129.994 433.295 129.992 C 433.295 129.966 433.295 129.943 433.295 129.919 C 433.295 129.919 433.295 129.917 433.295 129.917 C 433.295 128.158 433.482 126.399 433.853 124.673 L 433.853 124.673 C 435.021 126.981 437.994 132.059 443.32 136.298 C 443.296 136.34 443.275 136.38 443.252 136.422 C 441.895 138.83 439.636 140.573 438.284 142.986 C 438.083 143.343 437.91 143.71 437.761 144.081 Z " fill="rgb(67,49,112)"/><path d=" M 497.401 148.077 C 494.008 148.077 489.392 147.393 483.604 146.029 C 475.826 144.195 466.14 141.182 455.589 137.314 C 437.948 130.844 417.477 121.653 413.756 117.47 C 412.453 116.003 410.837 113.88 411.867 112.373 C 412.619 111.276 414.875 110.166 425.76 113.205 C 431.552 114.821 437.128 116.884 437.184 116.905 L 436.696 118.217 C 436.64 118.199 431.113 116.153 425.377 114.553 C 414.744 111.586 413.222 112.876 413.025 113.165 C 412.768 113.541 413.1 114.625 414.803 116.538 C 417.951 120.079 436.464 128.808 456.071 135.997 C 479.255 144.501 496.269 148.267 501.582 146.073 C 501.884 145.947 502.243 145.744 502.236 145.492 C 502.225 145.193 501.79 143.492 494.169 139.526 C 489.626 137.165 484.644 135.102 482.556 134.395 L 483.006 133.068 C 485.134 133.79 490.207 135.887 494.813 138.284 C 503.551 142.829 503.615 144.8 503.636 145.447 C 503.654 146.029 503.407 146.835 502.117 147.367 C 500.973 147.842 499.399 148.077 497.401 148.077 Z " fill="rgb(255,0,81)"/></g></g></svg>