<?xml version="1.0" standalone="no"?><!-- Generator: Gravit.io --><svg xmlns="http://www.w3.org/2000/svg" xmlns:xlink="http://www.w3.org/1999/xlink" style="isolation:isolate" viewBox="0 0 1045.972 517.5" width="1045.972" height="517.5"><defs><clipPath id="_clipPath_rOZzDSQqhKaCwXlpRD3eeShzmpbvBTvW"><rect width="1045.972" height="517.5"/></clipPath></defs><g clip-path="url(#_clipPath_rOZzDSQqhKaCwXlpRD3eeShzmpbvBTvW)"><linearGradient id="_lgradient_11" x1="0.7586206896551717" y1="1.0523952095808387" x2="0.49910788110883875" y2="0.2855198693522045" gradientTransform="matrix(1044.5,0,0,517,0.472,0)" gradientUnits="userSpaceOnUse"><stop offset="0%" stop-opacity="1" style="stop-color:rgb(56,17,83)"/><stop offset="100%" stop-opacity="0" style="stop-color:rgb(91,0,151)"/></linearGradient><rect x="0.472" y="0" width="1044.5" height="517" transform="matrix(1,0,0,1,0,0)" fill="url(#_lgradient_11)"/><g opacity="0.14"><linearGradient id="_lgradient_12" x1="0" y1="0" x2="1" y2="0" gradientTransform="matrix(637.935,312.369,-784.158,254.121,190.731,243.895)" gradientUnits="userSpaceOnUse"><stop offset="0%" stop-opacity="1" style="stop-color:rgb(238,98,162)"/><stop offset="15.873015873015872%" stop-opacity="1" style="stop-color:rgb(232,95,162)"/><stop offset="100%" stop-opacity="1" style="stop-color:rgb(137,83,159)"/></linearGradient><path d=" M 1045.638 296.506 C 961.667 283.166 896.3 300.558 877.166 337.312 C 858.454 373.251 755.551 359.609 700.321 379.606 C 613.545 411.024 645.969 453.812 522.819 453.812 C 399.668 453.812 432.752 411.024 345.316 379.606 C 289.895 359.691 187.181 373.251 168.472 337.312 C 149.335 300.558 83.968 283.166 0 296.506 L 0 516.5 L 1045.638 516.5 L 1045.638 296.506 Z " fill="url(#_lgradient_12)"/></g><g opacity="0.05"><path d=" M 1045.972 517.5 L 1045.972 339.915 C 986.201 338.77 951.798 355.837 923.88 372.904 C 890.427 393.354 866.282 413.805 818.968 402.925 C 764.371 390.37 685.812 386.456 650.729 421.678 C 611.084 461.48 530.591 450.584 530.591 421.677 C 530.591 414.288 530.591 407.603 530.591 407.603 L 516.351 407.603 C 516.351 407.603 516.351 412.536 516.351 421.677 C 516.351 450.584 435.861 461.48 396.214 421.678 C 361.13 386.456 305.266 394.968 227.972 402.925 C 177.133 408.158 153.319 390.002 123.382 371.846 C 96.067 355.28 63.656 338.714 0.972 339.915 L 0.972 517.5 L 1045.972 517.5 Z " fill="rgb(248,251,252)"/></g><g style="opacity:0.47;"><path d=" M 530.613 398.77 C 530.613 394.745 527.35 391.482 523.326 391.482 C 519.301 391.482 516.038 394.745 516.038 398.77 C 516.038 398.77 515.097 416 523.326 425.172 C 531.554 416 530.613 398.77 530.613 398.77 Z " fill="rgb(204,77,204)"/><path d=" M 497.876 359.309 C 497.876 359.309 470.588 372.524 481.401 411.495 C 481.401 411.495 487.175 391.905 505.689 386.832 L 497.876 359.309 Z " fill="rgb(127,76,162)"/><path d=" M 549.021 359.309 C 549.021 359.309 576.309 372.524 565.495 411.495 C 565.495 411.495 559.722 391.905 541.208 386.832 L 549.021 359.309 Z " fill="rgb(127,76,162)"/><path d=" M 532.304 394.96 L 513.756 394.96 C 513.024 394.96 512.39 394.453 512.228 393.739 L 511.21 389.248 C 510.988 388.269 511.733 387.335 512.738 387.335 L 533.322 387.335 C 534.327 387.335 535.073 388.269 534.85 389.248 L 533.831 393.739 C 533.67 394.453 533.035 394.96 532.304 394.96 Z " fill="rgb(70,70,70)"/><path d=" M 496.596 348.783 C 496.596 348.783 499.443 374.92 508.241 391.482 C 508.241 391.482 522.216 384.754 538.779 391.482 C 538.779 391.482 548.871 377.508 550.942 346.712 C 552.134 328.967 550.709 308.707 544.832 291.251 L 503.784 291.251 C 498.322 305.471 494.431 324.566 496.596 348.783 Z " fill="rgb(236,208,255)"/><path d=" M 520.15 262.93 C 516.021 267.601 508.942 276.964 503.451 291.251 L 544.499 291.251 C 540.739 280.081 535.159 270.057 527.259 262.584 C 525.226 260.661 522.003 260.833 520.15 262.93 Z " fill="rgb(155,95,195)"/><path d=" M 522.719 347.519 C 522.719 347.519 510.128 376.128 522.719 410.144 C 522.719 410.144 536.71 381.76 522.719 347.519 Z " fill="rgb(127,76,162)"/><path d=" M 539.732 320.972 C 539.732 329.719 532.641 336.81 523.894 336.81 C 515.148 336.81 508.057 329.719 508.057 320.972 C 508.057 312.225 515.148 305.134 523.894 305.134 C 532.641 305.134 539.732 312.225 539.732 320.972 Z " fill="rgb(155,95,195)"/><path d=" M 534.889 320.972 C 534.889 327.044 529.967 331.967 523.894 331.967 C 517.822 331.967 512.899 327.044 512.899 320.972 C 512.899 314.9 517.822 309.977 523.894 309.977 C 529.967 309.977 534.889 314.9 534.889 320.972 Z " fill="rgb(255,175,201)"/></g></g></svg>